<svg id="Capa_1" data-name="Capa 1" xmlns="http://www.w3.org/2000/svg" viewBox="0 0 371.21 225.83"><defs><style>.cls-1{fill:#eb5d24;}</style></defs><title>imagencita_naranja</title><path class="cls-1" d="M54.57,0C84.27,65.89,138,120.83,203.67,151.26c51.94,24.1,110.8,32.61,167.54,25.26V0Z"/><path class="cls-1" d="M38.8,18.62A233.78,233.78,0,0,0,71.08,72.81c2.21,2.78,6.1-1.15,3.91-3.91A228,228,0,0,1,43.58,15.83c-1.39-3.27-6.15-.45-4.78,2.79Z"/><path class="cls-1" d="M90.24,89.67l4.83,5.52a2.79,2.79,0,0,0,3.91,0,2.83,2.83,0,0,0,0-3.91l-4.84-5.52a2.78,2.78,0,0,0-3.9,0,2.81,2.81,0,0,0,0,3.91Z"/><path class="cls-1" d="M134.41,136.65A126.35,126.35,0,0,0,184,170.52c3.33,1.26,4.77-4.07,1.47-5.33a120.57,120.57,0,0,1-47.14-32.44c-2.38-2.66-6.28,1.26-3.91,3.9Z"/><path class="cls-1" d="M205.43,178l20.72,6.22c3.41,1,4.87-4.31,1.47-5.33l-20.72-6.21c-3.42-1-4.87,4.3-1.47,5.32Z"/><path class="cls-1" d="M260.65,194.07l40.75,8.26c3.47.71,5-4.62,1.47-5.33l-40.76-8.26c-3.47-.71-4.95,4.62-1.46,5.33Z"/><path class="cls-1" d="M322.87,203.74l15.19-.69c3.54-.16,3.56-5.69,0-5.52l-15.19.69c-3.54.16-3.56,5.68,0,5.52Z"/><path class="cls-1" d="M243.44,207.48a111,111,0,0,0,52.5,13.32c3.55,0,3.56-5.51,0-5.53a104.94,104.94,0,0,1-49.71-12.56c-3.13-1.68-5.92,3.09-2.79,4.77Z"/><path class="cls-1" d="M319.41,225.14l13.13.69c3.55.18,3.54-5.34,0-5.53l-13.13-.69c-3.55-.18-3.54,5.34,0,5.53Z"/><path class="cls-1" d="M106.18,140.73a91,91,0,0,0,22.57,20.56c3,1.94,5.77-2.85,2.78-4.77a86.84,86.84,0,0,1-21.45-19.69c-2.18-2.8-6.07,1.13-3.9,3.9Z"/><path class="cls-1" d="M9.73,29.69q3.33,7.65,6.68,15.3c1.42,3.25,6.18.44,4.77-2.79L14.5,26.91c-1.42-3.25-6.19-.44-4.77,2.78Z"/><path class="cls-1" d="M29.06,60.08Q37.49,75.4,45.91,90.7c1.72,3.11,6.49.33,4.77-2.79L33.84,57.29c-1.72-3.12-6.49-.33-4.78,2.79Z"/><path class="cls-1" d="M.45,58.2,8.82,71.26c1.92,3,6.7.22,4.77-2.79L5.22,55.41c-1.91-3-6.7-.22-4.77,2.79Z"/></svg>