<?xml version="1.0" encoding="utf-8"?>
<!-- Generator: Adobe Illustrator 24.0.2, SVG Export Plug-In . SVG Version: 6.00 Build 0)  -->
<svg version="1.1" id="Capa_1" xmlns="http://www.w3.org/2000/svg" xmlns:xlink="http://www.w3.org/1999/xlink" x="0px" y="0px"
	 viewBox="0 0 331 104" style="enable-background:new 0 0 331 104;" xml:space="preserve">
<style type="text/css">
	.st0{enable-background:new    ;}
	.st1{fill:#EB5D24;}
</style>
<title>agenda</title>
<g class="st0">
	<path class="st1" d="M50,29.9c2.2,1,3.7,2.5,4.4,4.6c-0.7,7.1-1.3,14.1-1.7,21.1c-0.5,7-1,12.8-1.5,17.6c-0.6,4.7-0.9,8.3-1.1,10.6
		c-0.2,2.3-0.4,4.7-0.6,7l-0.4,2c-0.1,0.7-0.1,1.3-0.2,2c-0.1,0.6-0.2,1.3-0.2,2c-1.6,2.1-3.9,3.3-6.9,3.6c-3.2,0.3-5.8-0.4-7.8-1.8
		c-1.2-0.8-1.5-2.6-1-5.5c0.2-1.1,0.3-2.6,0.3-4.4c0-1.8-0.1-3.3,0-4.5V84c-1.8,0.8-3.4,1.9-4.8,3.1c-1.4,1.2-2.3,2-2.6,2.3
		c-0.4,0.3-0.8,0.6-1.4,0.8s-1.2,0.4-1.7,0.5c-1.2,0.2-2,0.4-2.4,0.8c-3.1,6.8-6.1,10.7-8.9,11.6c-1.8,0.7-3.6,1-5.4,0.9
		s-3.4-1.1-4.6-2.9c-2.1-1.7-2.1-6.9,0.3-15.5C3.1,81,5,75.5,7.5,69.1c2.5-6.5,5-12.1,7.5-17c5.3-10.4,11.3-19.3,18-26.7
		c1.1-0.6,2.4-1.3,3.7-2c1.3-0.8,2.7-1.2,4-1.4s2.7-0.1,4.2,0.1c1.5,0.3,2.7,0.7,3.8,1.4C50.9,24.9,51.4,27.1,50,29.9z M31.9,56.1
		c-1,3.9-2.1,7.4-3.1,10.7c-1.1,3.3-2,6.1-2.7,8.6l7.4-0.9c0.2-4,0.4-8,0.7-12c0.3-4,0.6-8,0.8-11.9L31.9,56.1z M30.9,75.1
		c0.9-0.1,1.7-0.2,2.6-0.4v-0.1c-0.8,0.1-1.6,0.2-2.2,0.4C30.6,75,30.4,75.1,30.9,75.1z"/>
	<path class="st1" d="M87.7,19.6c8.9-2.5,15.9-2,21.3,1.7c2.5,1.7,4.3,4.4,5.4,8.1c1.1,3.6,1,7.8-0.3,12.5c-0.5,2.2-1.6,3.9-3.2,5.1
		c-1.6,1.2-3.3,1.9-5.1,2.2c-1.8,0.3-3.4,0.2-4.9-0.3s-2.3-1.3-2.5-2.4l-1-1.8c-1.7-2.1-4.3-2.2-7.8-0.2c-3.1,1.7-6.1,4.4-9,8.3
		c-3.1,4.1-5,7.7-5.7,10.8c-0.9,3.5-1.2,5.7-1.2,6.8c0.1,2.4,1.1,4.4,3,6.2c2.8,1.5,5.4,2,8.1,1.7c2.6-0.4,4.9-1.1,6.9-2.3
		c2-1.2,3.6-2.5,4.8-3.9s1.8-2.4,1.7-3c0.2-0.4,0.3-0.8,0.5-1.2c0.2-0.4,0.3-0.8,0.4-1.2c-0.3,0-0.2,0,0.2-0.1s0.5-0.1,0.3,0
		c-0.2,0-0.1,0.1,0.3,0.1l0.6,0.1c-2.8,3-5.8,3.8-8.8,2.4c-1.2-0.6-2.2-1.3-3.2-2c-0.9-0.7-1.8-1-2.5-0.9c-1.4-0.6-1.9-2.1-1.3-4.3
		c0.2-0.9,0.8-1.8,1.5-2.6c0.8-0.8,1.8-1.5,3.1-1.9c6-3.2,11.8-4.3,17.2-3.2c2.4,0.4,4.2,1.6,5.2,3.4c1.1,1.8,1.6,3.9,1.7,6.3
		c0.1,2.4-0.3,4.8-1,7.3s-1.5,4.5-2.5,6.1c-0.9,1.6-2.3,3.4-4,5.6c-1.7,2.1-4,4.3-6.7,6.4c-6.7,5.1-14.1,7.9-22.2,8.4
		c-11.7,0.7-19-3.5-21.8-12.7c-0.9-2.9-1.5-6.3-1.7-10c-0.2-10.9,2.2-21.3,7.3-31.2c2.5-4.7,5.9-9.5,10.3-14.2c2.8-2.9,6-5.3,9.6-7
		C82.6,21.6,84.9,20.6,87.7,19.6z"/>
	<path class="st1" d="M136.2,75.1c3.7,0.1,6.4,0.1,8.2-0.1s4.5-0.6,8-1.4c1.2,0.3,1.8,0.7,2.1,1.3c0.2,0.5,0.3,1.1,0.3,1.7
		s0.1,1.2,0.2,1.7c0.2,0.6,0.8,1,1.9,1.3c0.6,0.1,0.8,0.7,0.6,1.6c-0.1,0.9-0.6,1.9-1.3,3.1c-1.8,2.8-4.1,4.9-6.9,6.2
		c-4.4,1.5-7.9,2.4-10.4,2.8c-4.2,0.6-8.9,0.9-13.9,0.6c-5.6-0.6-8.4-2.6-8.5-6.2c-1-13.1,0.8-26.5,5.5-40.2
		c1.5-4.5,3.3-9.2,5.3-14.1c0.4-1,0.6-2.2,0.6-3.4c0-1.3,0-2.5-0.1-3.7c0-1.2,0.1-2.3,0.3-3.2c0.2-1,0.8-1.7,1.8-2.1
		c12.6-6.2,22.7-9,30.4-8.4c2.6-0.1,4.4,0.6,5.4,2.3s1.2,3.6,0.7,5.7c-0.5,2.2-1.6,4.3-3.4,6.3c-1.8,2-4.1,3.4-6.9,4
		c-3.6,1.4-5.8,2.2-6.6,2.7c-1.5,0.9-2.5,2-3.1,3.3c-0.8,1.4-1.5,2.8-2.1,4.1c-0.7,1.3-1.1,2.7-1.3,4.2l-0.2,2.1
		c1.2,0.5,2.7,0.5,4.4,0.2c1.7-0.4,3.3-0.7,4.7-1c1.5-0.3,2.6-0.4,3.6-0.3c0.9,0.1,1.2,1,0.8,2.7s-1.2,3.6-2.5,5.8
		c-1.2,2.2-3.1,3.8-5.6,5c-1.6,0.4-2.7,0.8-3.3,1s-1,0.3-1.3,0.4c-0.4,0.1-1.7,0.3-3.7,0.6c-2.5,5.2-4,9.2-4.4,12
		C135.4,74.6,135.6,75.2,136.2,75.1z"/>
	<path class="st1" d="M168.6,47.9c0.9-4.3,1.7-7.6,2.3-9.9s1.2-4.4,1.8-6.3c0.6-1.9,1.3-3.7,2.2-5.5c0.8-1.8,1.8-3.4,2.8-4.9
		s2.2-2.7,3.4-3.6c1.2-0.9,2.6-1.4,4-1.5s3,0.3,4.6,1.3c3,6,4.9,10.1,5.6,12.2c1,3.1,2,7.4,3.1,13c0.4-1.5,1-3,1.6-4.7
		s1.2-3.3,1.7-5c1.6-4.3,2.6-7.5,2.9-9.7c1-4.5,3.6-8,7.8-10.5c3.6-2.2,7.1-3,10.4-2.6c1.3,0.1,2.3,0.6,2.9,1.4
		c0.6,0.8,0.7,1.6,0.2,2.5s-0.6,1.8-0.4,2.5c0.2,0.8,0.4,1.7,0.6,2.7c0.4,2.9,0.1,5.4-0.9,7.8c-1,2.3-2,5.2-3,8.5c-1,3.4-2,7-3,10.7
		c-1,3.8-2,7.6-3,11.6c-1,3.9-2,7.5-3,10.7c-2.2,7.4-4.1,11.5-5.8,12.4c-2.3,1.6-3.9,2.6-5,2.9c-1.4,0.4-3.4,0.5-6.1,0.5
		c-1.6,0-3.2-2-4.7-5.9c-0.9-2.1-1.7-5.1-2.6-8.9c-1.5-6.7-2.5-10.3-2.9-11c-1.9,8.3-3.2,13.6-4.1,15.8s-1.5,3.7-2,4.4
		c-0.5,0.7-1,1.7-1.7,2.9c-0.6,2.3-2.4,4.1-5.4,5.4c-2.5,1.2-4.9,1.6-7.1,1c-2.4-0.6-3.2-2-2.4-4.1
		C163.4,76.5,165.2,64.4,168.6,47.9z"/>
	<path class="st1" d="M279.4,37.4c0,2.7-0.3,5.5-0.8,8.4s-1.3,5.7-2.4,8.5s-2.5,5.5-4.2,8.2c-1.6,2.6-3.5,5.1-5.6,7.4
		s-4.3,4.3-6.8,5.9c-5.2,3.7-10.5,5.3-15.7,4.7c-0.9,2.5-2.5,4.2-4.6,5c-2.2,0.8-4.4,1-6.6,0.5s-4.2-1.6-6-3.3
		c-1.8-1.7-2.8-4.1-3-7.3c-0.2-3.2-0.3-6.4-0.1-9.8c0.2-3.3,0.5-6.6,1-9.7c0.8-5.2,1.9-10,3.3-14.6c3.3-10.4,5.1-17.6,5.4-21.7
		c0.4-5.5,1.6-9,3.7-10.5c3.5-2.4,6.8-3.6,10.1-3.5c3.3,0.1,6.3,0.6,9,1.6c4.5,1.7,9.4,4.8,14.8,9.3
		C276.8,21.5,279.6,28.5,279.4,37.4z M244.8,68.4c3.1-1.9,5.5-3.8,7.3-5.6c1.8-1.9,3.6-3.6,5.2-5.2c2.5-2.9,4.2-6.2,5.1-10
		c2.1-8.3-0.1-14.4-6.7-18c-1-0.6-2.5-1.4-4.4-2.5c-0.7,2.1-1.2,4.2-1.4,6.4c-0.2,2.2-0.6,4.4-1.1,6.5l-1.9,8.4l-1.4,9.1
		c0,1.3-0.1,2.5-0.3,3.7c-0.2,1.2-0.3,2.4-0.4,3.7L244.8,68.4z"/>
	<path class="st1" d="M326.6,8c2.2,1,3.7,2.5,4.4,4.6c-0.7,7.1-1.3,14.1-1.7,21.1c-0.5,7-1,12.8-1.5,17.6c-0.6,4.7-0.9,8.3-1.1,10.6
		c-0.2,2.3-0.4,4.7-0.6,7l-0.4,2c-0.1,0.7-0.1,1.3-0.2,2c-0.1,0.6-0.2,1.3-0.2,2c-1.6,2.1-3.9,3.3-6.9,3.6c-3.2,0.3-5.8-0.4-7.8-1.8
		c-1.2-0.8-1.5-2.6-1-5.5c0.2-1.1,0.3-2.6,0.3-4.4s-0.1-3.3,0-4.5v-0.2c-1.8,0.8-3.4,1.9-4.8,3.1s-2.3,2-2.6,2.3
		c-0.4,0.3-0.8,0.6-1.4,0.8c-0.6,0.2-1.2,0.4-1.7,0.5c-1.2,0.2-2,0.4-2.4,0.8c-3.1,6.8-6.1,10.7-8.9,11.6c-1.8,0.7-3.6,1-5.4,0.9
		s-3.4-1.1-4.6-2.9c-2.1-1.7-2.1-6.9,0.3-15.5c1.3-4.6,3.2-10.1,5.7-16.5c2.5-6.5,5-12.1,7.5-17c5.3-10.4,11.3-19.3,18-26.7
		c1.1-0.6,2.4-1.3,3.7-2c1.3-0.8,2.7-1.2,4-1.4s2.7-0.1,4.2,0.1c1.5,0.3,2.7,0.7,3.8,1.4C327.4,3,328,5.2,326.6,8z M308.4,34.3
		c-1,3.9-2.1,7.4-3.1,10.7c-1.1,3.3-2,6.1-2.7,8.6l7.4-0.9c0.2-4,0.4-8,0.7-12c0.3-4,0.6-8,0.8-11.9L308.4,34.3z M307.4,53.2
		c0.9-0.1,1.7-0.2,2.6-0.4v-0.1c-0.8,0.1-1.6,0.2-2.2,0.4C307.1,53.2,307,53.2,307.4,53.2z"/>
</g>
</svg>
