<svg id="Capa_1" data-name="Capa 1" xmlns="http://www.w3.org/2000/svg" viewBox="0 0 371.21 122.39"><defs><style>.cls-1{fill:#fab300;}</style></defs><title>imagencita_amarillo</title><path class="cls-1" d="M33.91,22.61C52.74,30.9,74,31,94.54,32s42.13,3.39,58.9,15.31c11.27,8,19.43,19.66,30.19,28.34,31,25,78.21,19.8,111.59-1.81,28-18.13,48.31-45.38,66.21-73.81h-66A69.19,69.19,0,0,1,256.6,33.77c-20.2,7-43.26,4.37-62-5.93A88,88,0,0,1,164.49,0H7.79A58.26,58.26,0,0,0,33.91,22.61Z"/><path class="cls-1" d="M365.73,14.32a83,83,0,0,1-14.82,23.19c-1.35,1.49.86,3.71,2.21,2.21A85.48,85.48,0,0,0,368.43,15.9c.79-1.83-1.91-3.43-2.7-1.58Z"/><path class="cls-1" d="M337.84,52.61l-4.69,4.17c-1.51,1.34.71,3.54,2.21,2.21l4.69-4.17c1.51-1.34-.71-3.55-2.21-2.21Z"/><path class="cls-1" d="M313.82,72.45,296,83.79c-1.69,1.08-.12,3.79,1.58,2.71q8.91-5.67,17.81-11.35c1.7-1.07.13-3.78-1.58-2.7Z"/><path class="cls-1" d="M254.58,99.15a78.8,78.8,0,0,1-37.78,1.1c-2-.43-2.8,2.59-.83,3a82.12,82.12,0,0,0,39.44-1.11,1.56,1.56,0,0,0-.83-3Z"/><path class="cls-1" d="M194.77,94.08,189,89.91c-1.63-1.19-3.19,1.53-1.58,2.7l5.74,4.17c1.63,1.19,3.19-1.53,1.58-2.7Z"/><path class="cls-1" d="M167.13,74.66a89.64,89.64,0,0,0-31.6-29.47c-1.76-1-3.34,1.72-1.58,2.7a86.31,86.31,0,0,1,30.48,28.35c1.1,1.68,3.81.12,2.7-1.58Z"/><path class="cls-1" d="M333.21,74.05a40,40,0,0,1-12.94,7.84c-1.87.69-1.07,3.72.83,3a44.42,44.42,0,0,0,14.32-8.64c1.5-1.35-.71-3.56-2.21-2.22Z"/><path class="cls-1" d="M368.58,40.06a92.52,92.52,0,0,1-20.49,17c-1.72,1-.15,3.75,1.58,2.7a96,96,0,0,0,21.12-17.51c1.35-1.49-.86-3.71-2.21-2.22Z"/><path class="cls-1" d="M235.28,110.08a46.74,46.74,0,0,1-21.59,0c-2-.45-2.8,2.56-.83,3a50.59,50.59,0,0,0,23.25,0c2-.46,1.13-3.48-.83-3Z"/><path class="cls-1" d="M213.73,119.31l-9.4-2.56a1.57,1.57,0,0,0-.83,3l9.4,2.56a1.57,1.57,0,0,0,.83-3Z"/><path class="cls-1" d="M89.68,39.45c-19-4.39-40.05,3.38-57.9-6.14C30,32.37,28.42,35.07,30.2,36c18.33,9.77,39.27,2,58.65,6.45,2,.46,2.79-2.56.83-3Z"/><path class="cls-1" d="M21.64,26.81a31.17,31.17,0,0,1-8.55-6c-1.43-1.42-3.65.79-2.21,2.21a33.49,33.49,0,0,0,9.18,6.5c1.8.87,3.39-1.83,1.58-2.7Z"/><path class="cls-1" d="M5.79,10.89,2.66,7.24a1.57,1.57,0,0,0-2.21,0,1.58,1.58,0,0,0,0,2.21L3.57,13.1a1.58,1.58,0,0,0,2.22,0,1.6,1.6,0,0,0,0-2.21Z"/><path class="cls-1" d="M30.41,43.68A114.87,114.87,0,0,1,10,30.18c-1.54-1.28-3.76.92-2.21,2.21a118.15,118.15,0,0,0,21.08,14c1.79.92,3.37-1.77,1.58-2.7Z"/><path class="cls-1" d="M50.57,48l-5.22-.46c-2-.18-2,3,0,3.13l5.22.46c2,.18,2-3,0-3.13Z"/><path class="cls-1" d="M152.84,70.86a18.1,18.1,0,0,0-8.51-5.62c-1.92-.6-2.75,2.42-.83,3a15.13,15.13,0,0,1,7.13,4.81c1.3,1.54,3.5-.68,2.21-2.21Z"/></svg>