<?xml version="1.0" encoding="utf-8"?>
<!-- Generator: Adobe Illustrator 24.0.2, SVG Export Plug-In . SVG Version: 6.00 Build 0)  -->
<svg version="1.1" id="Capa_1" xmlns="http://www.w3.org/2000/svg" xmlns:xlink="http://www.w3.org/1999/xlink" x="0px" y="0px"
	 viewBox="0 0 475.7 64.8" style="enable-background:new 0 0 475.7 64.8;" xml:space="preserve">
<style type="text/css">
	.st0{enable-background:new    ;}
	.st1{fill:#2C2C2C;}
</style>
<title>experiencias</title>
<g class="st0">
	<path class="st1" d="M16.1,49.6c2.8,0.3,4.9,0.4,6.3,0.4s3.5-0.2,6.3-0.6c0.9,0.3,1.4,0.7,1.5,1.1s0.2,0.9,0.1,1.4
		c0,0.5,0,0.9,0.1,1.4c0.1,0.4,0.6,0.8,1.4,1.1c0.4,0.1,0.6,0.6,0.4,1.3C32,56.4,31.6,57.2,31,58c-1.6,2.1-3.5,3.6-5.7,4.4
		C21.8,63.3,19,63.8,17,64c-3.3,0.3-6.9,0.1-10.8-0.3c-4.3-0.8-6.4-2.6-6.2-5.3c0-10.3,2.2-20.6,6.7-30.9c1.5-3.4,3.1-6.9,5-10.6
		c0.4-0.8,0.6-1.7,0.7-2.6c0.1-1,0.1-1.9,0.2-2.9c0-0.9,0.2-1.8,0.4-2.5c0.2-0.7,0.8-1.2,1.5-1.5c10.2-4.4,18.3-6,24.2-5
		c2.1,0,3.4,0.7,4.1,2.1C43.5,5.8,43.5,7.3,43,9s-1.5,3.2-3,4.7s-3.4,2.4-5.6,2.7c-2.9,0.8-4.6,1.4-5.3,1.7
		c-1.2,0.6-2.1,1.4-2.6,2.4c-0.7,1.1-1.3,2.1-1.9,3.1c-0.6,1-1,2-1.2,3.2l-0.3,1.6c0.9,0.4,2.1,0.6,3.4,0.4c1.3-0.2,2.6-0.3,3.7-0.5
		c1.1-0.2,2.1-0.2,2.8,0c0.7,0.1,0.9,0.9,0.4,2.2c-0.4,1.3-1.2,2.8-2.3,4.4s-2.6,2.8-4.6,3.5c-1.3,0.2-2.1,0.4-2.6,0.6
		c-0.5,0.1-0.8,0.2-1.1,0.3c-0.3,0-1.3,0.1-2.9,0.2c-2.3,3.9-3.7,6.9-4.2,9.1C15.5,49.2,15.7,49.6,16.1,49.6z"/>
	<path class="st1" d="M62.2,20.9l7.4-9.8c-0.5-1.5-0.3-3.1,0.6-4.8c2.9-2.9,5.8-4.8,8.7-5.7c3.2-0.8,6-0.8,8.4,0.1
		c1.2,0.5,2.2,1.2,2.9,2.3c0.7,1,0.8,2.4,0.4,4.1c-1.2,2.5-3.5,5.7-7.1,9.6c-1.5,1.6-2.9,3.1-4.4,4.6s-2.7,2.9-3.8,4.3
		c-1.1,1.3-2.1,2.7-3,4s-1.8,2.7-2.8,4c0.5,2.1,1.6,5.2,3.2,9.6c1.6,4.3,2.8,7.6,3.4,9.8c0.6,2.2,1,4.4,1.1,6.5
		c-0.2,0.7-0.5,1.2-0.9,1.4c-0.4,0.2-0.8,0.3-1.2,0.4c-0.4,0-0.8,0.1-1.1,0c-0.3,0-0.5,0.1-0.6,0.4c0.3,0.5,0.3,1-0.1,1.5
		c-0.3,0.4-0.9,0.8-1.5,1c-1.6,0.5-3.3,0.5-5-0.2c-1.7-1.2-3.4-3.4-5.1-6.7c-1-2-2.1-5-3.3-8.9c-1,1.3-1.9,2.7-2.6,4.1
		c-0.8,1.4-1.6,2.8-2.4,4.1c-1.9,3.1-3.7,5.3-5.6,6.5c-3.3,1.7-6.6,2.1-9.7,1.2c-2.7-1.5-3.3-4.3-1.6-8.5c0.5-1.5,1.1-2.4,1.6-2.8
		c0.2-0.2,0.4-0.4,0.4-0.4s0,0,0.1-0.1c0,0,0.1-0.2,0.2-0.4c0.1-0.2,0.4-0.7,0.9-1.4c1.7-2.6,3.6-5.5,5.8-8.5l1.5-1.8
		c0.7-0.9,1.5-1.8,2.3-2.8c1.9-2.4,3.2-3.9,3.8-4.5c-2-4.7-3.2-7.9-3.7-9.6c-0.7-3-1.1-7.1-1.3-12.2C47.6,10,48,8.5,49.6,6.6
		c1.4-1.7,3-2.8,4.8-3.3c2.1-0.6,3.4,0,4,1.8c0.9,2.6,1.7,5.2,2.2,7.7C61.1,15.4,61.6,18.1,62.2,20.9z"/>
	<path class="st1" d="M119.5,43c-2,1.5-4,2.5-6.1,3.2s-4.2,0.9-6.3,0.6c-2.1-0.3-3.9-1.2-5.4-2.7c-1.4,4.4-2.3,8.7-2.8,12.9
		c-0.2,0.8-0.5,1.5-1,2.1c-0.9,2.6-2.8,4.3-5.8,5.2c-2.9,0.8-5.7,0.7-8.2-0.4c-1.2-0.5-2.2-1.3-2.9-2.3c-0.8-1-1.2-2.3-1.2-3.7
		c3.4-11.7,6.6-21.3,9.7-28.8c0.7-1.6,1.2-2.8,1.6-3.8s0.8-1.8,1.1-2.5c0.3-0.7,0.6-1.3,0.9-1.8s0.6-1.1,1-1.7
		c0.9-1.5,1.9-3.2,3-5.2s2.1-3.5,2.9-4.4c0.8-1,1.7-1.8,2.6-2.5s1.9-1.4,3-2s2.5-1.5,4.1-2.5c1.7-1,3.4-1.7,5.3-1.9s3.7-0.1,5.4,0.5
		c3.6,1.1,6.3,3.6,8,7.5c1.5,3.6,1.7,8.5,0.8,14.6C127.7,32.6,124.5,39.2,119.5,43z M104.2,36.5c4-0.9,6.8-3.5,8.3-7.9
		c1.3-3.7,1.6-7.8,0.8-12.5c-1.1,1.9-2.1,3.9-3,5.9c-0.9,2.1-1.7,3.9-2.4,5.5C106.2,31.2,105,34.2,104.2,36.5z"/>
	<path class="st1" d="M142.9,49.4c2.8,0.3,4.9,0.4,6.3,0.4c1.4,0,3.5-0.2,6.3-0.6c0.9,0.3,1.4,0.7,1.5,1.1s0.2,0.9,0.1,1.4
		c0,0.5,0,0.9,0.1,1.4c0.1,0.4,0.6,0.8,1.4,1.1c0.4,0.1,0.6,0.6,0.4,1.3c-0.2,0.7-0.6,1.5-1.2,2.3c-1.6,2.1-3.5,3.6-5.7,4.4
		c-3.5,0.9-6.3,1.4-8.3,1.6c-3.3,0.3-6.9,0.1-10.8-0.3c-4.3-0.8-6.4-2.6-6.2-5.3c0-10.3,2.2-20.6,6.7-30.9c1.5-3.4,3.1-6.9,5-10.6
		c0.4-0.8,0.6-1.7,0.7-2.6c0.1-1,0.1-1.9,0.2-2.9c0-0.9,0.2-1.8,0.4-2.5s0.8-1.2,1.5-1.5c10.2-4.1,18.2-5.7,24.1-4.7
		c2.1,0,3.4,0.7,4.1,2.1s0.7,2.8,0.2,4.5s-1.5,3.2-3,4.7s-3.4,2.4-5.6,2.7c-2.9,0.8-4.6,1.4-5.3,1.7c-1.2,0.6-2.1,1.4-2.6,2.4
		c-0.7,1.1-1.3,2.1-1.9,3.1c-0.6,1-1,2-1.2,3.2l-0.3,1.6c0.9,0.4,2.1,0.6,3.4,0.4c1.3-0.2,2.6-0.3,3.7-0.5c1.1-0.2,2.1-0.2,2.8,0
		c0.7,0.1,0.9,0.9,0.4,2.2c-0.4,1.3-1.2,2.8-2.3,4.4s-2.6,2.8-4.6,3.5c-1.3,0.2-2.1,0.4-2.6,0.6c-0.5,0.1-0.8,0.2-1.1,0.3
		c-0.3,0-1.3,0.1-2.9,0.2c-2.3,3.9-3.7,6.9-4.2,9.1C142.3,48.9,142.5,49.4,142.9,49.4z"/>
	<path class="st1" d="M177.6,58.8c-0.4,2-1.9,3.2-4.5,3.6c-2.4,0.4-4.7,0.2-6.8-0.8c-2.4-1-3.4-2.5-3.2-4.3c-0.3-2.8,1.2-9,4.4-18.5
		c4.9-14.2,9.7-24.4,14.6-30.5c1.3-1.6,2.4-2.6,3.3-3c0.9-0.5,1.9-0.9,3.1-1.3c1.2-0.4,2.4-0.8,3.7-1.1c2.5-0.7,4.9-1.2,7.2-1.4
		c2.3-0.3,4.3,0,6.1,0.8s3.2,2,4.2,3.5c1,1.6,1.6,3.4,1.9,5.5c0.2,2.1,0.2,4.4-0.2,6.7c-0.4,2.3-1.1,4.7-2.1,7
		c-1,2.4-2.3,4.6-3.9,6.6c-3.4,4.5-7.4,7.4-12,8.7l0.7,1.2c0.6,1,1.4,2.1,2.3,3.2c0.9,1.2,1.8,2.4,2.7,3.6s1.7,2.4,2.5,3.7
		s1.3,2.4,1.6,3.4c0.8,2.4,0.2,4.1-1.8,5.2c-1.6,1-2.9,1.2-3.8,0.7c-0.4-0.2-0.8-0.5-1.2-0.9s-0.9-0.7-1.6-0.9
		c-2.9,0.8-5.1,0.1-6.6-2.2c-0.9-1.5-1.6-2.8-2.1-4s-0.9-2.2-1.3-3.1c-0.9-1.8-1.9-3.4-3-4.7c-0.5,1.3-1.1,3-1.8,5.1
		c-0.8,2.6-1.8,5.3-2.8,8.1h0.4V58.8z M192.3,16.1c-0.9,2.1-1.6,3.6-1.9,4.4c-0.7,1.7-1.4,3.5-2.3,5.5c-0.1,1.1-0.3,1.8-0.4,2.3l1-1
		l1.2-0.6c0.9-0.5,1.7-0.9,2.4-1.3s1.4-0.9,2-1.5c1.1-1.1,2.1-3,2.9-5.5c0-0.5,0.1-1,0.3-1.5s0.3-1,0.3-1.5c0.2-1.1-0.2-1.8-1.3-2.3
		c-1-0.1-2.2,0.7-3.7,2.4C192.7,15.9,192.5,16.1,192.3,16.1z"/>
	<path class="st1" d="M238.3,8.9c-1.7,5.3-3.3,10.1-4.7,14.4s-2.7,8.3-3.9,11.9s-2.3,7-3.3,10c-1,3.1-2,6-2.8,8.8
		c-0.5,3.2-2.1,5.5-4.8,6.8c-1.6,0.7-3.4,1.1-5.6,1.1c-2.2,0-3.8-0.2-4.8-0.7c-1.1-0.5-1.8-1.1-2.1-2s-0.3-1.9,0-3.2
		c0.3-1.2,0.9-3,1.6-5.1c0.8-2.2,1.8-5.1,3-8.8c1.2-3.7,2.4-7.5,3.8-11.3c3.3-9.5,5.8-16.1,7.7-19.8c0.7-1.4,1.5-2.3,2.2-2.8
		s1.4-0.8,2.1-1c0.7-0.2,1.3-0.5,1.9-0.8s1.1-1,1.6-2.2c0.5-1.2,1.3-2,2.6-2.4c1.2-0.4,2.4-0.5,3.5-0.1s1.9,1.1,2.5,2.3
		C239.3,5.2,239.2,6.8,238.3,8.9z"/>
	<path class="st1" d="M250.9,49.2c2.8,0.3,4.9,0.4,6.3,0.4c1.4,0,3.5-0.2,6.3-0.6c0.9,0.3,1.4,0.7,1.5,1.1s0.2,0.9,0.1,1.4
		c0,0.5,0,0.9,0.1,1.4c0.1,0.4,0.6,0.8,1.4,1.1c0.4,0.1,0.6,0.6,0.4,1.3c-0.2,0.7-0.6,1.5-1.2,2.3c-1.6,2.1-3.5,3.6-5.7,4.4
		c-3.5,0.9-6.3,1.4-8.3,1.6c-3.3,0.3-6.9,0.1-10.8-0.3c-4.3-0.8-6.4-2.6-6.2-5.3c0-10.3,2.2-20.6,6.7-30.9c1.5-3.4,3.1-6.9,5-10.6
		c0.4-0.8,0.6-1.7,0.7-2.6c0.1-1,0.1-1.9,0.2-2.9c0-0.9,0.2-1.8,0.4-2.5c0.2-0.7,0.8-1.2,1.5-1.5c10.2-4.1,18.2-5.7,24.1-4.7
		c2.1,0,3.4,0.7,4.1,2.1s0.7,2.8,0.2,4.5s-1.5,3.2-3,4.7s-3.4,2.4-5.6,2.7c-2.9,0.8-4.6,1.4-5.3,1.7c-1.2,0.6-2.1,1.4-2.6,2.4
		c-0.7,1.1-1.3,2.1-1.9,3.1s-1,2-1.2,3.2l-0.3,1.6c0.9,0.4,2.1,0.6,3.4,0.4s2.6-0.3,3.7-0.5s2.1-0.2,2.8,0c0.7,0.1,0.9,0.9,0.4,2.2
		c-0.4,1.3-1.2,2.8-2.3,4.4c-1.1,1.6-2.6,2.8-4.6,3.5c-1.3,0.2-2.1,0.4-2.6,0.6c-0.5,0.1-0.8,0.2-1.1,0.3c-0.3,0-1.3,0.1-2.9,0.2
		c-2.3,3.9-3.7,6.9-4.2,9.1C250.3,48.8,250.4,49.2,250.9,49.2z"/>
	<path class="st1" d="M277.7,29.9c1-3.3,1.8-5.8,2.4-7.6c0.6-1.8,1.2-3.4,1.8-4.8c0.6-1.4,1.3-2.8,2-4.1c0.8-1.3,1.6-2.5,2.5-3.6
		s1.9-2,2.9-2.6s2.1-1,3.2-1s2.3,0.4,3.5,1.3c2,4.9,3.2,8.2,3.6,9.8c0.6,2.4,1.1,5.9,1.6,10.3c0.4-1.1,0.9-2.3,1.5-3.6
		c0.6-1.2,1.1-2.5,1.6-3.8c1.5-3.2,2.5-5.7,2.8-7.3c1.1-3.4,3.3-6,6.7-7.7c2.9-1.5,5.7-1.9,8.2-1.4c1,0.2,1.7,0.6,2.2,1.2
		c0.4,0.6,0.4,1.3,0,2s-0.6,1.3-0.4,1.9c0.1,0.6,0.2,1.3,0.3,2.2c0.2,2.2-0.2,4.2-1.2,6c-0.9,1.7-1.9,3.9-2.8,6.5
		c-1,2.6-2,5.3-3,8.2c-1,2.9-2,5.8-3,8.8s-2,5.7-3,8.1c-2.1,5.6-3.9,8.7-5.3,9.3c-1.9,1.1-3.2,1.8-4.1,2c-1.1,0.2-2.7,0.2-4.8,0
		c-1.3-0.1-2.4-1.7-3.3-4.9c-0.5-1.7-1-4.1-1.5-7.1c-0.8-5.3-1.3-8.2-1.6-8.7c-1.9,6.4-3.3,10.4-4.1,12c-0.8,1.7-1.4,2.8-1.8,3.3
		s-0.9,1.2-1.5,2.1c-0.6,1.8-2.1,3.1-4.5,3.9c-2.1,0.8-3.9,0.9-5.6,0.4c-1.8-0.6-2.3-1.7-1.6-3.4C271.9,51.9,274,42.6,277.7,29.9z"
		/>
	<path class="st1" d="M351.8,21.8c0-1.5-0.5-2.2-1.5-2.2c-0.4,0-0.9,0.1-1.4,0.3c-0.5,0.2-1,0.4-1.5,0.5c-1.8,1-3.2,2-4.2,3.2
		s-2,2.4-3,3.9c-1,1.4-1.9,2.9-2.6,4.5s-1.3,3.1-1.7,4.5c-1.4,5.2-0.9,8.8,1.6,10.6c1,0.7,2.1,1.1,3.3,1.1c1.1,0,2.1-0.3,2.8-0.7
		c0.7-0.4,1.4-0.9,2.1-1.2s1.5-0.7,2.4-0.8c0.9-0.2,2-0.1,3.4,0.4c1.3,0.4,2.1,1,2.2,1.6c0.1,0.7,0.1,1.4,0,2.1s-0.1,1.4,0,2
		s0.6,1,1.6,1.1c0.9,1.2,0.3,2.6-1.8,4.3c-0.5,0.4-1,0.9-1.5,1.2c-4.2,2.7-8.7,4.2-13.4,4.5c-3,0.2-6.2-0.3-9.5-1.6
		c-5-1.9-7.9-6.2-8.5-12.8c-0.8-6.2-0.1-12.5,2.3-19.1c2-5.6,5-10.7,9.1-15.5c3.7-4.4,7.3-7.2,10.8-8.5c4.2-2.2,8.8-3.1,13.8-2.6
		c5.2,0.7,8.7,2.9,10.3,6.7c1.6,3.8,1.4,8.3-0.8,13.6c-0.7,1.9-2.1,3.3-4.2,4.4c-1.8,1-3.7,1.5-5.7,1.5c-2.1,0-3.4-0.6-4-1.9
		C351.3,25.3,351.2,23.7,351.8,21.8z"/>
	<path class="st1" d="M391.8,8.6c-1.7,5.3-3.3,10.1-4.7,14.4c-1.4,4.3-2.7,8.3-3.9,11.9c-1.2,3.6-2.3,7-3.3,10c-1,3.1-2,6-2.8,8.8
		c-0.5,3.2-2.1,5.5-4.8,6.8c-1.6,0.7-3.4,1.1-5.6,1.1s-3.8-0.2-4.8-0.7c-1.1-0.5-1.8-1.1-2.1-2c-0.3-0.9-0.3-1.9,0-3.2
		c0.3-1.2,0.9-3,1.6-5.1c0.8-2.2,1.8-5.1,3-8.8c1.2-3.7,2.4-7.5,3.8-11.3c3.3-9.5,5.8-16.1,7.7-19.8c0.7-1.4,1.5-2.3,2.2-2.8
		s1.4-0.8,2.1-1s1.3-0.5,1.9-0.8s1.1-1,1.6-2.2c0.5-1.2,1.3-2,2.6-2.4c1.2-0.4,2.4-0.5,3.5-0.1s1.9,1.1,2.5,2.3S392.7,6.6,391.8,8.6
		z"/>
	<path class="st1" d="M428.3,8.4c1.7,0.9,2.7,2.2,3.2,3.9c-1,5.5-1.8,10.9-2.6,16.3c-0.8,5.4-1.5,9.9-2.2,13.6
		c-0.7,3.6-1.2,6.4-1.5,8.2c-0.3,1.8-0.6,3.6-0.9,5.4l-0.4,1.5c-0.1,0.5-0.2,1-0.3,1.5c-0.1,0.5-0.2,1-0.3,1.5
		c-1.4,1.6-3.2,2.4-5.6,2.4c-2.5,0-4.5-0.6-5.9-1.9c-0.9-0.7-1-2.1-0.4-4.3c0.2-0.9,0.4-2,0.5-3.4s0.2-2.6,0.2-3.5v-0.1
		c-1.5,0.5-2.8,1.2-4,2.1s-1.9,1.4-2.2,1.6c-0.3,0.2-0.7,0.4-1.2,0.5s-0.9,0.2-1.3,0.3c-0.9,0.1-1.6,0.2-1.9,0.4
		c-2.8,5.1-5.4,7.9-7.6,8.5c-1.4,0.4-2.8,0.6-4.3,0.3c-1.4-0.2-2.5-1.1-3.4-2.5c-1.6-1.5-1.2-5.5,1.2-12c1.3-3.5,3.1-7.6,5.4-12.5
		c2.4-4.9,4.6-9.1,6.8-12.7c4.7-7.8,9.9-14.3,15.6-19.7c0.9-0.4,1.9-0.8,3-1.4c1.1-0.5,2.1-0.8,3.2-0.8c1,0,2.1,0.1,3.3,0.4
		c1.1,0.3,2.1,0.7,2.9,1.3C429.3,4.6,429.5,6.3,428.3,8.4z M412.6,27.7c-1,2.9-2,5.6-3.1,8.1c-1,2.5-1.9,4.6-2.6,6.5l5.8-0.2
		c0.4-3.1,0.8-6.2,1.3-9.3c0.5-3.1,0.9-6.2,1.4-9.2L412.6,27.7z M410.7,42.4c0.7,0,1.4,0,2.1-0.2l0,0c-0.6,0.1-1.2,0.1-1.8,0.2
		C410.4,42.4,410.3,42.4,410.7,42.4z"/>
	<path class="st1" d="M441.3,62.3c-2.5,0.1-4.8-0.2-6.9-0.9c-2.1-0.7-3.8-1.7-5.1-2.9s-2.1-2.6-2.5-4.3c-0.3-1.6-0.1-3.3,0.9-5
		c1.3-2.1,3.8-2.7,7.6-1.8c2.9,0.6,4.9,0.9,6,0.9s2-0.1,2.8-0.4c3.6-1.2,5.6-2.5,6-3.8c0.3-1-0.3-2.2-1.9-3.6
		c-0.6-0.6-1.3-1.2-2.1-1.8c-0.8-0.6-1.4-1.2-2-1.8c-2.4-1.8-4.4-3.9-5.8-6.3s-2-4.9-1.7-7.7c0.2-2.8,0.7-5.1,1.4-6.9
		c0.7-1.8,1.5-3.5,2.6-4.9c1.8-2.5,4.1-4.5,7-6.1c3.3-1.7,6-2.8,8-3.3c4-0.9,8-1,12-0.2c1.4,0.2,2.5,0.7,3.5,1.4
		c1,0.7,2,1.4,2.9,2.1c1.7,1.7,2.1,3.4,1.3,5.2c-0.3,0.8-0.9,1.4-1.6,1.9s-1.5,0.8-2.3,0.8c0.1,1.3-0.1,2.3-0.7,2.9
		c-1.1,1.1-3.1,1.9-5.9,2.2c-4-0.3-6.7-0.1-8.1,0.7c-1.7,0.9-2.3,2.8-1.8,5.7c0.1,0.6,0.5,1.3,1.2,2s1.5,1.4,2.5,2.2
		c1,0.8,2,1.7,3,2.6c1.1,1,2,2.1,2.8,3.4c2.7,4.5,2.5,9.7-0.6,15.8c-2.3,4.5-6.3,7.9-12,10.1C448.8,61.8,445.3,62.3,441.3,62.3z"/>
</g>
</svg>
