<?xml version="1.0" encoding="utf-8"?>
<!-- Generator: Adobe Illustrator 24.0.2, SVG Export Plug-In . SVG Version: 6.00 Build 0)  -->
<svg version="1.1" id="Capa_1" xmlns="http://www.w3.org/2000/svg" xmlns:xlink="http://www.w3.org/1999/xlink" x="0px" y="0px"
	 viewBox="0 0 1030.1 909.7" style="enable-background:new 0 0 1030.1 909.7;" xml:space="preserve">
<style type="text/css">
	.st0{fill:#EB5D24;}
	.st1{fill:#EB5D9D;}
	.st2{fill:#FAB300;}
	.st3{enable-background:new    ;}
	.st4{fill:#FFFFFF;}
	.st5{fill:#2C2C2C;}
</style>
<title>logo_gastropop_hero</title>
<g>
	<circle class="st0" cx="504.6" cy="454.8" r="400.6"/>
	<path class="st1" d="M399.5,119.1c37.4-7.6,69.9-30.5,89.6-63.2c8.3-14,13.7-33,3.6-45.8c-9.8-12.5-29.3-12.2-43.9-6
		s-27.2,16.7-42.3,21.8c-17.7,6-36.9,3.8-55.5,3.1s-38.6,0.5-53.5,11.7C227.9,93.1,366.4,125.6,399.5,119.1z"/>
	<path class="st1" d="M786.6,138.9c44.1,10.1,80,49.2,86.4,94c1.6,11.4,1.4,23.5-4.1,33.6s-17.3,17.3-28.5,14.7
		c-13.5-3.2-20.5-18.4-32.7-25c-17-9.1-37.3,0.8-56.5,2.9c-36,4-91-34.1-78.2-75.7C685.4,143.1,751.7,130.8,786.6,138.9z"/>
	<path class="st2" d="M883.2,305.5c11.9,0.8,21.7,11.7,23.1,23.6s-4.3,23.8-13,31.9s-20.1,12.9-31.6,16c-9.7,2.6-19.8,4-29.8,2.6
		s-19.6-6-25.9-13.9c-15.1-19-1.3-40.6,20.5-42.8c9.4-1,16.2-0.6,25.1-5C861.7,313,871.2,304.7,883.2,305.5z"/>
	<path class="st1" d="M71.8,582.7c-15.7,6.4-31.3,13.5-44.5,24.1S3.5,631.9,0.6,648.5c-2.6,15,3.3,33,17.7,37.9
		c10,3.4,20.9-0.3,30.2-5.3s18-11.5,28.2-13.9c24.4-6,48.9,11.9,73.9,10.1c36.4-2.6,62.5-54.1,41.9-85
		C166.2,552.8,107,568.3,71.8,582.7z"/>
	<path class="st2" d="M829.1,779.1c-9.7,8.4-20.7,15.5-28.5,25.7s-11.6,24.9-4.9,35.9c4.9,8,14.5,12.2,23.9,12.5s18.5-2.7,27-6.6
		c35.3-16.2,62.5-46,75.3-82.6c3.5-10.3,5.9-21.3,4.2-32c-3.6-23-31.8-39.7-49.7-20.6C857.4,731.9,851.3,759.9,829.1,779.1z"/>
	<path class="st1" d="M65.2,726.5c-6,13-0.2,30.1,12.4,37s29.9,2.8,38.3-8.8C141.7,719,82.8,688.4,65.2,726.5z"/>
	<path class="st1" d="M67.1,483.3c0.7,4.4,2,8.8,4.8,12.2s7.5,5.6,11.8,4.5c4.8-1.3,7.7-6,10.1-10.4l21-38c2.5-4.5,5-9.2,6.1-14.3
		s0.3-10.8-3.2-14.7c-4.2-4.7-11.4-5.6-17.5-3.9C76.1,425.5,63.5,460.9,67.1,483.3z"/>
	<path class="st2" d="M241.1,811.7c13.3-3.4,27.7-0.6,39.9,5.7c11.9,6.1,22.3,16,26.6,28.6s1.8,28-8.3,36.8s-25.2,9.3-37.7,4.9
		s-23.1-13-33.4-21.4C204.7,847.1,209.7,819.7,241.1,811.7z"/>
	<path class="st2" d="M318.2,889.6c-2.6,6.1-1.9,14.3,3.6,18c3.8,2.6,9,2.5,13.3,0.7s7.8-5,11-8.3c4.3-4.4,8.3-9,12.1-13.8
		c3.9-5,7.5-10.3,8.8-16.5c2.8-14-10.9-25.1-22.2-15.5c-4.8,4.1-7.7,11.6-11.6,16.5C328.1,877,321.4,882.1,318.2,889.6z"/>
	<path class="st2" d="M910.9,664.6l21.3,14c2.2,1.4,4.4,2.9,6.9,3.3c5.2,0.9,10.3-3,12.1-7.9s1-10.4-1-15.3
		c-5.8-14.4-22.7-24.6-38.3-22.5C891.7,638.9,897.9,656,910.9,664.6z"/>
	<circle class="st2" cx="1003.5" cy="751.5" r="26.6"/>
	<path class="st2" d="M1020.4,677.3c0,7.3-5.9,13.2-13.2,13.2s-13.2-5.9-13.2-13.2s5.9-13.2,13.2-13.2l0,0
		C1014.5,664.1,1020.4,670,1020.4,677.3L1020.4,677.3z"/>
	<path class="st2" d="M899.4,389.9c-0.8,7,5.4,13.4,12.3,14.9s14.1-0.6,20.5-3.5c6.7-3,13.1-7,17.7-12.8
		c9.3-11.7,7.4-34.5-11.4-31.7C926.5,358.7,900.8,377.5,899.4,389.9z"/>
	<circle class="st2" cx="967" cy="291" r="31"/>
	<path class="st2" d="M692.1,131.4c5.2-2.1,11.1-4.9,12.7-10.3c2-6.5-3.9-13.3-10.5-15s-13.5,0.3-20,2.2
		c-10.1,3-28.6,11.9-20.2,25.6C661.8,146.5,682.6,135.3,692.1,131.4z"/>
	<g class="st3">
		<path class="st4" d="M262.1,330.7c16-4.6,28.8-3.5,38.4,3.1c4.6,3.2,7.8,8,9.8,14.6c1.9,6.6,1.8,14.1-0.5,22.5
			c-0.9,3.9-2.9,7-5.8,9.2s-5.9,3.5-9.1,4s-6.1,0.4-8.8-0.5c-2.7-0.9-4.2-2.3-4.6-4.3l-1.8-3.3c-3-3.9-7.8-4-14.2-0.4
			c-5.6,3.1-11,8-16.2,14.9c-5.6,7.4-9,13.9-10.4,19.6c-1.6,6.3-2.3,10.4-2.1,12.3c0.1,4.3,1.9,8,5.5,11.2c5,2.7,9.8,3.7,14.6,3
			c4.7-0.7,8.9-2.1,12.5-4.2c3.6-2.2,6.5-4.5,8.6-7.1c2.2-2.6,3.2-4.3,3.2-5.4c0.3-0.7,0.6-1.4,0.9-2.1s0.5-1.4,0.7-2.1
			c-0.5,0-0.3,0,0.3-0.1c0.7-0.1,0.8-0.1,0.5,0s-0.2,0.2,0.5,0.2l1,0.3c-5.1,5.4-10.4,6.9-15.9,4.3c-2.1-1.1-4-2.3-5.7-3.6
			c-1.7-1.3-3.2-1.8-4.6-1.6c-2.6-1.2-3.4-3.8-2.3-7.8c0.4-1.6,1.4-3.2,2.8-4.7s3.3-2.7,5.6-3.4c10.9-5.7,21.3-7.7,31.1-5.9
			c4.4,0.8,7.5,2.8,9.4,6.2c1.9,3.3,2.9,7.1,3,11.4s-0.5,8.7-1.8,13.3c-1.3,4.5-2.8,8.2-4.5,11s-4.1,6.2-7.3,10
			c-3.2,3.9-7.2,7.7-12.1,11.5c-12.1,9.3-25.5,14.3-40.1,15.1c-21.2,1.3-34.3-6.3-39.5-23c-1.7-5.3-2.7-11.4-3.1-18.2
			c-0.4-19.7,4-38.6,13.3-56.5c4.4-8.5,10.6-17.1,18.6-25.7c5-5.3,10.8-9.5,17.4-12.6C252.9,334.2,257.1,332.4,262.1,330.7z"/>
		<path class="st4" d="M397.9,333.1c4,1.7,6.7,4.5,8,8.4c-1.3,12.8-2.3,25.6-3.1,38.2c-0.8,12.6-1.7,23.2-2.8,31.8
			c-1,8.6-1.7,14.9-2,19.2c-0.3,4.2-0.7,8.5-1.1,12.7l-0.7,3.6c-0.1,1.3-0.3,2.4-0.4,3.5s-0.3,2.3-0.4,3.5c-2.9,3.9-7,6-12.4,6.4
			c-5.8,0.5-10.5-0.7-14.1-3.3c-2.2-1.4-2.8-4.7-1.8-9.9c0.4-2.1,0.6-4.7,0.5-8c-0.1-3.2-0.1-5.9,0-8.1v-0.3
			c-3.3,1.5-6.2,3.4-8.8,5.6c-2.6,2.2-4.2,3.6-4.8,4.1c-0.6,0.6-1.5,1-2.6,1.4s-2.1,0.7-3,0.8c-2.1,0.3-3.6,0.7-4.3,1.4
			c-5.6,12.3-11,19.3-16.1,21c-3.2,1.3-6.5,1.8-9.8,1.5c-3.3-0.2-6.1-2-8.3-5.2c-3.9-3.1-3.7-12.4,0.5-28
			c2.3-8.3,5.7-18.2,10.3-29.9c4.6-11.7,9.1-21.9,13.5-30.6c9.5-18.8,20.4-34.9,32.5-48.3c2.1-1.1,4.3-2.3,6.7-3.7
			c2.4-1.4,4.8-2.2,7.2-2.5c2.4-0.3,5-0.2,7.6,0.3c2.7,0.5,4.9,1.3,6.8,2.5C399.5,324,400.4,328,397.9,333.1z M365.1,380.5
			c-1.8,7-3.7,13.4-5.6,19.3s-3.6,11.1-4.9,15.5l13.3-1.6c0.3-7.3,0.8-14.6,1.3-21.8c0.6-7.2,1.1-14.4,1.5-21.6L365.1,380.5z
			 M363.2,414.8c1.6-0.1,3.2-0.4,4.7-0.7v-0.2c-1.5,0.2-2.8,0.5-4,0.7C362.6,414.7,362.4,414.8,363.2,414.8z"/>
		<path class="st4" d="M437.7,455.4c-5.7,0.7-11.1,0.4-16-0.9c-4.9-1.3-9-3.2-12.2-5.8s-5.4-5.7-6.5-9.5c-1.1-3.7-0.7-7.6,1.1-11.8
			c2.6-5,8.3-6.9,17.3-5.6c6.8,0.8,11.4,1.2,14,1.1c2.5-0.1,4.7-0.6,6.4-1.5c8-3.4,12.4-6.7,13.2-9.9c0.5-2.4-1.2-5.1-5.1-8
			c-1.6-1.2-3.3-2.5-5.2-3.7c-1.9-1.2-3.5-2.4-4.9-3.7c-6-3.7-10.8-8.2-14.4-13.4c-3.7-5.2-5.5-11.1-5.4-17.6s0.7-11.9,2-16.3
			c1.2-4.4,2.9-8.3,5-11.7c3.7-6.1,8.8-11.2,15.2-15.3c7.4-4.6,13.3-7.6,17.9-9.1c9-2.8,18.2-3.7,27.7-2.7c3.2,0.3,6,1.2,8.4,2.6
			s4.8,2.9,7.2,4.4c4.3,3.6,5.5,7.6,3.8,11.8c-0.6,1.9-1.8,3.4-3.4,4.7c-1.6,1.3-3.4,2-5.3,2.3c0.5,3,0.1,5.3-1.2,6.9
			c-2.4,2.8-6.8,4.9-13.2,6.2c-9.3,0.1-15.5,1.1-18.7,3c-3.7,2.3-4.7,6.9-3.2,13.6c0.3,1.5,1.4,2.9,3.2,4.4c1.8,1.5,3.8,3,6.2,4.6
			c2.3,1.6,4.8,3.5,7.4,5.6s4.9,4.5,7,7.3c7.1,9.9,7.6,22.1,1.4,36.6c-4.6,10.8-13.2,19.3-25.9,25.6
			C454.9,452.7,447,454.7,437.7,455.4z"/>
		<path class="st4" d="M557.9,392.3c-2.4,9.1-4.9,17.9-7.4,26.2c-2.5,8.4-4.7,14.8-6.4,19.2c-1.8,4.4-3.4,7.5-4.8,9.2
			c-1.5,1.7-3,2.9-4.6,3.6c-1.6,0.7-3.2,1-4.9,1.1c-1.6,0-3.3,0-5,0.1c-9.6-0.7-13.1-7.3-10.4-19.8c1.6-9.9,2.9-18,3.9-24.3
			s1.8-11.5,2.4-15.5c0.6-4.1,1.2-7.5,1.7-10.2s1-5.4,1.6-8.1s1.3-5.7,2.3-9c0.9-3.4,2.1-7.8,3.6-13.4c-4.2,0.9-8.1,0.8-11.6-0.4
			c-5.1-1.8-7.5-6.2-7.2-13.4c0.2-3.3,1.7-6.5,4.5-9.6c1.5-1.6,3.2-3.3,5.2-5.2c4.1-3.8,12.6-8.3,25.4-13.3
			c13.2-5.1,24.7-8,34.4-8.5c2.6-0.7,5.3-0.6,8.1,0.3c2.9,0.9,5.2,2.1,7,3.8c1.8,1.7,2.9,3.6,3.1,5.7c0.2,2.1-1,4.2-3.7,6.1
			c-1.3,1-2.1,2.6-2.5,4.7s-0.8,4.4-1.3,6.8s-1.3,4.6-2.5,6.6c-1.1,2-3.1,3.3-5.9,3.9c-1.4,0.9-3.4,1.6-6.1,2.2
			c-2.6,0.5-4.4,0.9-5.2,1.2c-0.8,0.2-1.3,0.6-1.4,1c-1.6,6.2-3.4,13.6-5.6,22.4C562.6,374.2,560.3,383.2,557.9,392.3z M531.4,349.3
			c-0.2,0-0.3,0.1-0.3,0.1c0,0.1,0.1,0.1,0.3,0.1V349.3z"/>
		<path class="st4" d="M617.1,431.9c-0.7,4.6-3.9,7.6-9.8,9.1c-5.5,1.5-10.8,1.2-15.9-0.6c-5.7-1.9-8.4-5.1-8.1-9.4
			c-1.2-6.5,1.1-21,7-43.5c8.7-33.8,18.1-58.2,28.3-73.2c2.7-3.8,5-6.4,7-7.6s4.3-2.4,7-3.5c2.6-1.1,5.4-2.2,8.3-3.2
			c5.7-2,11.2-3.6,16.4-4.6s10-0.8,14.3,0.7s7.8,4,10.4,7.4c2.6,3.4,4.4,7.6,5.3,12.5c1,4.9,1.2,10,0.7,15.5
			c-0.5,5.4-1.7,11-3.6,16.7c-1.9,5.7-4.5,11-7.8,16c-7.1,11-15.8,18.5-26.2,22.4l1.9,2.7c1.6,2.1,3.6,4.5,5.9,7
			c2.3,2.5,4.6,5.1,6.9,7.8c2.3,2.7,4.4,5.3,6.3,8c1.9,2.7,3.4,5.2,4.4,7.7c2.2,5.4,1.1,9.5-3.3,12.4c-3.5,2.6-6.4,3.3-8.7,2.4
			c-1-0.5-1.9-1.1-2.9-1.9c-1-0.8-2.3-1.4-3.9-1.8c-6.5,2.4-11.7,1.2-15.7-3.9c-2.4-3.2-4.3-6.2-5.7-8.9c-1.4-2.7-2.5-5-3.4-6.9
			c-2.4-4-5-7.4-7.8-10.3c-1,3.1-2.1,7.2-3.3,12c-1.4,6.1-3.1,12.5-5,19.1L617.1,431.9z M643.5,330.5c-1.8,5-3,8.5-3.6,10.5
			c-1.3,4-2.7,8.3-4.2,13.1c-0.1,2.5-0.3,4.3-0.4,5.3l2.2-2.6l2.8-1.6c1.9-1.3,3.7-2.5,5.4-3.5c1.6-1,3.1-2.3,4.3-3.8
			c2.4-2.8,4.3-7.2,5.8-13.2c-0.1-1.1,0-2.3,0.3-3.4c0.3-1.2,0.5-2.3,0.5-3.4c0.3-2.5-0.9-4.2-3.5-5c-2.3,0-5,2-8,6.3
			C644.3,330.1,643.8,330.5,643.5,330.5z"/>
		<path class="st4" d="M711.5,311c6.5-8.7,14-14.4,22.5-17.1c5.9-1.9,11.5-2.2,17-0.7c3.8-4.7,9.1-6.7,15.9-6
			c6.2,0.6,11.7,3.7,16.4,9.1c0.3,0.8,0.9,1.9,1.7,3.4c0.9,1.5,1.7,3.2,2.5,5.1c5.9,11.1,7.5,26.2,4.8,45.3
			c-3.4,23.7-11,44.1-22.9,61.3c-3.7,5.3-7.9,9.8-12.7,13.5c-7.6,6.9-17.1,10.4-28.5,10.6c-7,0.2-13-1.1-18-3.9
			c-19.6-7.9-27.3-26.9-23.1-57.2C690.5,349.7,698.7,328.5,711.5,311z M720.7,400.8l-0.1,1l0.5,1.8c1,3.4,2.3,6,4,7.8
			c1.7,1.7,3.1,2.8,4.2,3.2c1.1-1,2.1-1.9,3.2-2.8c1.1-0.9,2-1.9,2.8-3.1c6.9-10.1,11.9-23,15-38.7s3.5-30.1,1.4-43.1
			c-4,6-8.1,12.9-12.4,20.6c-4.3,7.7-7.6,14.3-10,19.7C723.8,379.8,720.9,391,720.7,400.8z"/>
	</g>
	<g class="st3">
		<path class="st5" d="M440,576c-4.3,3.7-8.8,6.6-13.6,8.5c-4.8,1.9-9.6,2.7-14.6,2.4c-4.9-0.3-9.3-2.1-13-5.3
			c-2.4,10.3-3.7,20.4-4.1,30.3c-0.3,1.8-1,3.5-2,5.1c-1.6,6.1-5.7,10.5-12.4,13.1c-6.6,2.5-13,2.6-19.1,0.5c-2.8-1-5.2-2.7-7.2-4.9
			s-3.1-5-3.4-8.4c5.7-27.6,11.4-50.3,17.3-68.2c1.3-3.7,2.3-6.8,3.1-9.1c0.8-2.3,1.5-4.3,2.2-6c0.7-1.6,1.3-3.1,1.8-4.3
			s1.2-2.6,2-4.2c1.8-3.5,3.8-7.7,6.1-12.5c2.3-4.8,4.3-8.4,6-10.8c1.7-2.4,3.5-4.5,5.5-6.3s4.2-3.5,6.6-5.2s5.5-3.8,9.1-6.5
			c3.7-2.7,7.6-4.4,11.9-5.3c4.3-0.9,8.5-0.8,12.5,0.1c8.6,1.9,15.2,7.3,19.8,16c4,8.1,5.5,19.3,4.4,33.6
			C457.1,550.5,450.8,566.3,440,576z M403.4,563.7c9.1-2.8,15.1-9.3,17.9-19.7c2.4-8.7,2.2-18.4-0.4-29c-2.3,4.6-4.2,9.4-5.9,14.3
			c-1.7,4.9-3.3,9.3-4.7,13.2C407.2,551.2,404.9,558.3,403.4,563.7z"/>
		<path class="st5" d="M484.1,496.1c6.5-8.7,14-14.4,22.5-17.1c5.9-1.9,11.5-2.2,17-0.7c3.8-4.7,9.1-6.7,15.9-6
			c6.2,0.6,11.7,3.7,16.4,9.1c0.3,0.8,0.9,1.9,1.7,3.4c0.9,1.5,1.7,3.2,2.5,5.1c5.9,11.1,7.5,26.2,4.8,45.3
			c-3.4,23.7-11,44.1-22.9,61.3c-3.7,5.3-7.9,9.8-12.7,13.5c-7.6,6.9-17.1,10.4-28.5,10.6c-7,0.2-13-1.1-18-3.9
			c-19.6-7.9-27.3-26.9-23.1-57.2C463.2,534.8,471.3,513.6,484.1,496.1z M493.3,586l-0.1,1l0.5,1.8c1,3.4,2.3,6,4,7.8
			c1.7,1.7,3.1,2.8,4.2,3.2c1.1-1,2.1-1.9,3.2-2.8c1.1-0.9,2-1.9,2.8-3.1c6.9-10.1,11.9-23,15-38.7s3.5-30.1,1.4-43.1
			c-4,6-8.1,12.9-12.4,20.6c-4.3,7.7-7.6,14.3-10,19.7C496.4,565,493.5,576.2,493.3,586z"/>
		<path class="st5" d="M650.9,559.3c-4.3,3.7-8.8,6.6-13.6,8.5s-9.6,2.7-14.6,2.4c-4.9-0.3-9.3-2.1-13-5.3
			c-2.4,10.3-3.7,20.4-4.1,30.3c-0.3,1.8-1,3.5-2,5.1c-1.6,6.1-5.7,10.5-12.4,13.1c-6.6,2.5-13,2.6-19.1,0.5c-2.8-1-5.2-2.7-7.2-4.9
			s-3.1-5-3.4-8.4c5.7-27.6,11.4-50.3,17.3-68.2c1.3-3.7,2.3-6.8,3.1-9.1s1.5-4.3,2.2-6c0.7-1.6,1.3-3.1,1.8-4.3s1.2-2.6,2-4.2
			c1.8-3.5,3.8-7.7,6.1-12.5s4.3-8.4,6-10.8c1.7-2.4,3.5-4.5,5.5-6.3s4.2-3.5,6.6-5.2s5.5-3.8,9.1-6.5c3.7-2.7,7.6-4.4,11.9-5.3
			c4.3-0.9,8.5-0.8,12.5,0.1c8.6,1.9,15.2,7.3,19.8,16c4.1,8.1,5.5,19.3,4.4,33.6C668.1,533.8,661.8,549.6,650.9,559.3z
			 M614.3,547.1c9.1-2.8,15.1-9.3,17.9-19.7c2.4-8.7,2.2-18.4-0.4-29c-2.3,4.6-4.2,9.4-5.9,14.3c-1.7,4.9-3.3,9.3-4.7,13.2
			C618.1,534.5,615.8,541.6,614.3,547.1z"/>
	</g>
</g>
</svg>
