<?xml version="1.0" encoding="utf-8"?>
<!-- Generator: Adobe Illustrator 24.0.2, SVG Export Plug-In . SVG Version: 6.00 Build 0)  -->
<svg version="1.1" id="Capa_1" xmlns="http://www.w3.org/2000/svg" xmlns:xlink="http://www.w3.org/1999/xlink" x="0px" y="0px"
	 viewBox="0 0 474.8 60.5" style="enable-background:new 0 0 474.8 60.5;" xml:space="preserve">
<style type="text/css">
	.st0{enable-background:new    ;}
	.st1{fill:#EB5D24;}
</style>
<title>hola un gusto</title>
<g class="st0">
	<path class="st1" d="M17.3,36.5l-3,7.7c-0.4,1.2-0.8,2.4-1.1,3.6c-0.3,1.3-0.7,2.4-1.1,3.3s-0.9,1.7-1.7,2.2
		c-0.8,0.5-1.6,1-2.6,1.2c-1,0.3-2,0.4-3,0.4s-1.9-0.2-2.7-0.6c-1.8-0.8-2.4-2.2-1.9-4.1C2.1,41.8,3.9,35,5.6,29.9
		c1.7-5.1,3.1-9.1,4.2-12c1.1-2.9,2.3-6,3.5-9.3c0.1-1.2,0.6-2.3,1.5-3.3s1.9-1.8,3.1-2.4s2.4-1.1,3.7-1.4S24,1.2,25,1.4
		c1,0.2,1.7,0.7,2.2,1.4c0.5,0.7,0.5,1.7,0.1,3.1c-1.5,3.8-2.6,6.6-3.2,8.2s-1.2,3-1.7,4.3l-1.7,4.1c0.9,0,2-0.1,3.3-0.4
		c2.4-0.5,4.2-0.7,5.3-0.6c0-0.2,0.1-0.6,0.3-1.1c1.2-5.1,2.5-9.8,3.9-14c1-3.5,3.7-5.4,8.1-5.5c1.7,0,3,0.4,3.9,1.2
		c1,0.9,1.1,2.1,0.4,3.6c-3.8,10.8-6.5,19.3-8.1,25.5c-1.8,7.2-3,12-3.5,14.5c-0.6,2.5-1,4-1.5,4.5c-0.4,0.5-0.8,0.8-1.3,1
		c-0.4,0.2-0.9,0.4-1.3,0.5c-0.4,0.2-0.8,0.6-1,1.3H29c-0.3,0.8-1.1,1.3-2.2,1.8c-1.1,0.4-2.3,0.6-3.4,0.5c-1.1-0.1-2.1-0.5-2.9-1.2
		c-0.8-0.7-1-1.8-0.6-3.4c0.4-2.4,1.1-4.9,2.1-7.7c1-2.7,1.7-4.9,2.3-6.4s1-3,1.4-4.3c-0.3,0.2-0.7,0.3-1,0.4s-0.7,0.2-1.2,0.5
		c-0.5,0.2-0.9,0.4-1.4,0.6s-1,0.3-1.4,0.5c-1.2,0.5-2.1,0.9-2.9,1.4L17.3,36.5z M24.4,32.3c0,0,0.3-0.1,0.6-0.2
		C24.8,32.2,24.5,32.2,24.4,32.3z"/>
	<path class="st1" d="M51.8,8.6c2.6-3,5.5-4.9,8.8-5.7c2.2-0.5,4.3-0.5,6.3,0.2c1.5-1.6,3.5-2.2,6-1.8c2.3,0.4,4.2,1.7,5.8,3.8
		c0.1,0.3,0.3,0.7,0.5,1.3C79.5,7,79.7,7.6,80,8.3c1.8,4.3,2,9.9,0.5,16.8C78.6,33.7,75.2,41,70.3,47c-1.5,1.8-3.2,3.4-5.1,4.6
		c-3,2.3-6.6,3.3-10.8,3.1c-2.6-0.1-4.8-0.8-6.5-1.9c-7-3.5-9.3-10.7-6.9-21.7C43,22.2,46.6,14.7,51.8,8.6z M52.7,41.9l-0.1,0.4
		l0.1,0.7c0.3,1.3,0.7,2.3,1.3,3c0.6,0.7,1.1,1.1,1.4,1.3c0.4-0.3,0.8-0.6,1.3-0.9c0.4-0.3,0.8-0.6,1.1-1.1c2.8-3.5,5-8.1,6.6-13.8
		c1.6-5.7,2.2-10.9,1.7-15.8c-1.6,2.1-3.3,4.5-5.1,7.2c-1.8,2.7-3.2,5-4.2,7C54.4,34.3,53,38.3,52.7,41.9z"/>
	<path class="st1" d="M98.5,53.4c-0.8,0-1.6,0.1-2.4,0.1s-1.9,0.1-3.4,0.1c-1.4,0-3.6,0-6.4-0.1c-0.7,0-1.3,0.1-2,0.1
		s-1.3-0.1-1.9-0.4c-1.3-0.5-2.2-1.8-2.6-3.8c-0.2-0.9-0.5-1.6-0.7-1.9c-0.3-0.4-0.5-0.7-0.7-1.1c-0.4-0.7-0.4-1.8,0.1-3.3
		s1.1-3.5,1.8-5.7c0.7-2.3,1.6-4.7,2.6-7.2c2.2-6.1,4.3-10.9,6.1-14.4c0.7-1.6,1.3-3,1.8-4.1c0.5-1.2,1-2.2,1.4-3
		c0.4-0.9,0.6-1.3,0.6-1.3c0.4-1.6,2-2.9,4.8-4c2.7-1.1,5.2-1.4,7.4-0.9c2.5,0.6,3.6,2.3,3.3,4.9c-0.6,2.6-1.4,5.2-2.6,7.8
		c-1.1,2.6-2.4,5.3-3.9,8.2c-1.5,2.8-3,5.9-4.7,9c-1.7,3.2-3.4,6.6-5.1,10.4c0,0.2,0,0.3,0.3,0.4c0.5,0,1.3-0.2,2.3-0.5
		s2-0.6,3.1-0.8s2.1-0.3,3.2-0.4c1,0,1.9,0.3,2.6,0.8c0,0.8,0.1,1.3,0.6,1.8c0.4,0.4,0.8,0.9,1.3,1.3c1,1.1,1.1,2.5,0.3,4.3
		c-0.8,1.8-2.3,3-4.5,3.6C100.1,53.3,99.3,53.4,98.5,53.4z"/>
	<path class="st1" d="M143.1,7.4c1.4,0.8,2.3,1.9,2.7,3.3c-0.8,4.7-1.6,9.3-2.2,13.9c-0.7,4.6-1.3,8.5-1.9,11.6
		c-0.6,3.1-1,5.4-1.3,7c-0.2,1.5-0.5,3.1-0.8,4.6l-0.4,1.3c-0.1,0.5-0.2,0.9-0.2,1.3c-0.1,0.4-0.2,0.8-0.2,1.3c-1.2,1.3-2.8,2-4.8,2
		c-2.1,0-3.8-0.5-5.1-1.6c-0.8-0.6-0.9-1.8-0.4-3.7c0.2-0.8,0.3-1.7,0.4-2.9c0.1-1.2,0.1-2.2,0.2-3v-0.1c-1.3,0.5-2.4,1.1-3.4,1.8
		c-1,0.7-1.6,1.2-1.9,1.4c-0.3,0.2-0.6,0.3-1,0.4s-0.8,0.2-1.1,0.2c-0.8,0-1.3,0.2-1.6,0.4c-2.4,4.3-4.6,6.8-6.5,7.3
		c-1.2,0.4-2.4,0.5-3.6,0.3s-2.2-0.9-2.9-2.2c-1.3-1.3-1-4.7,1-10.3c1.1-3,2.6-6.5,4.7-10.7c2-4.2,4-7.8,5.8-10.9
		c4-6.6,8.5-12.3,13.3-16.8c0.8-0.3,1.6-0.7,2.6-1.2c0.9-0.4,1.8-0.7,2.7-0.7s1.8,0.1,2.8,0.3c1,0.2,1.8,0.6,2.4,1.1
		C143.9,4.2,144.2,5.6,143.1,7.4z M129.7,23.9c-0.9,2.5-1.7,4.8-2.6,6.9c-0.9,2.1-1.6,4-2.2,5.6l5-0.2c0.3-2.7,0.7-5.3,1.1-8
		c0.4-2.6,0.8-5.3,1.2-7.9L129.7,23.9z M128,36.5c0.6,0,1.2,0,1.8-0.1v-0.1c-0.5,0-1,0.1-1.5,0.1C127.8,36.5,127.7,36.5,128,36.5z"
		/>
	<path class="st1" d="M158.6,45.9c0.1,0.1,0.2,0.3,0.3,0.5l1.1,1.1c0,0.5,0,1,0.2,1.5c0.1,0.5,0.2,1.1,0.1,1.8
		c-0.1,0.7-0.4,1.6-1.1,2.5c-0.7,0.9-1.4,1.8-2.3,2.5c-1.6,2.1-3.6,3.5-5.8,4.3c-2.5,0.8-4.6,0.5-6.5-1.1c-0.3-0.6-0.4-1-0.4-1.3
		s0.1-0.7,0.4-1.3c0.2-0.5,0.6-1.2,1-1.9c0.5-0.7,0.9-1.4,1.3-2l-0.3-0.3l-0.1,0.1c-0.1,0-0.2-0.1-0.2-0.4c-0.1-0.1-0.3-0.3-0.6-0.6
		h-0.1l-0.5-0.4l-0.1-0.3c-1.2-2.2-1-3.9,0.5-5.3c1.6-1.5,4-2.2,7.1-2.1c0.8,0,1.9,0.3,3.4,0.8c0.3,0.3,0.6,0.5,0.8,0.8
		c0.3,0.2,0.5,0.4,0.7,0.6l0.3-0.2l0.3,0.2C158.4,45.6,158.5,45.7,158.6,45.9z"/>
	<path class="st1" d="M202.9,4.5L202.9,4.5v0.2c0,0,0,0,0,0.1v0.1h0.1l0.4,1c0.4,1.2-0.7,5-3.2,11.3c-2.7,6.7-4,12-3.8,15.7
		c0.5,2.7,2.7,0.5,6.7-6.5c3.2-5.4,6.2-11.4,9.2-17.9c0.4-0.9,0.8-1.8,1.2-2.7c0.4-0.9,0.9-1.7,1.6-2.4c1.4-1.5,3-1.9,5-1.2
		c0.7-0.8,1.4-1.3,2.3-1.6c0.9-0.3,1.8-0.4,2.6-0.2c0.8,0.2,1.5,0.6,2.1,1.2S228,3,228,4c0.1,0.8-0.3,2.8-1.3,6
		c-1,3.1-1.9,6-2.7,8.6s-1.7,5.4-2.6,8.5c-2.1,7.2-3.8,14-5,20.4c0,1.3-0.6,2.4-1.7,3.3c-1.1,0.9-2.3,1.5-3.7,1.7
		c-1.4,0.3-2.6,0.2-3.9-0.1c-1.5-0.4-2.2-1.5-2.3-3.1c0-0.5,0-0.9-0.1-1.4c0.1,1.4-0.9,2.6-3.1,3.6c-0.6,0.3-1.1,0.6-1.6,0.8
		c-2.9,0.9-6,0.7-9.2-0.5c-1.5-0.6-2.9-1.5-4-2.5c-1.2-1.1-2-2.3-2.5-3.8c-1.5-4.7-1.2-10.8,0.8-18.4c0.8-3.3,1.8-6.4,3.1-9.5
		c1.2-3.1,2.1-5.3,2.7-6.7c0.6-1.4,1-2.3,1.2-2.9c0.3-0.5,0.5-1,0.8-1.5c0.7-1.4,1.3-2.4,1.8-2.9l0.8-0.7c0.1-0.1,0.2-0.1,0.3-0.2
		c0.1,0,0.2-0.1,0.3-0.2c0.3-0.2,0.7-0.4,1.1-0.4l0.9-0.2h0.4c1.2-0.2,2.3,0.1,3.1,0.7c0,0,0,0.1,0.1,0.1l0.5,0.4l0.2,0.2l0.2,0.2
		v0.1c0,0,0,0,0,0.1l0.1,0.1v0.1c0,0,0.1,0,0.1,0.1v0.1l0.1,0.1v0.1v0.1l0,0c0,0,0,0.1,0.1,0.1v0.1C202.8,4.4,202.8,4.4,202.9,4.5z
		 M204.6,46.2V46c0,0-0.1,0.2-0.1,0.5C204.6,46.4,204.6,46.3,204.6,46.2L204.6,46.2z"/>
	<path class="st1" d="M228.6,25.5c0.8-2.8,1.5-5,2-6.5s1-2.9,1.5-4.1s1.1-2.4,1.7-3.5c0.6-1.1,1.4-2.2,2.1-3.1
		c0.8-0.9,1.6-1.7,2.5-2.2s1.8-0.8,2.8-0.8s2,0.4,3,1.1c1.7,4.2,2.7,7,3.1,8.4c0.5,2.1,1,5,1.4,8.8c0.4-1,0.8-2,1.3-3
		s0.9-2.1,1.4-3.2c1.3-2.8,2.1-4.9,2.4-6.3c0.9-2.9,2.8-5.1,5.7-6.6c2.5-1.3,4.8-1.7,7-1.2c0.9,0.2,1.5,0.5,1.8,1.1
		c0.4,0.5,0.4,1.1,0,1.7s-0.5,1.1-0.4,1.7c0.1,0.5,0.2,1.1,0.3,1.8c0.1,1.9-0.2,3.6-1,5.1s-1.6,3.3-2.4,5.5s-1.7,4.5-2.5,7
		c-0.9,2.5-1.7,5-2.6,7.5c-0.9,2.6-1.7,4.9-2.6,7c-1.8,4.8-3.3,7.5-4.5,8c-1.6,1-2.8,1.5-3.5,1.7c-1,0.2-2.3,0.2-4.1,0
		c-1.1-0.1-2-1.5-2.8-4.2c-0.5-1.5-0.9-3.5-1.3-6.1c-0.7-4.5-1.1-7-1.4-7.5c-1.7,5.4-2.8,8.9-3.5,10.3s-1.2,2.4-1.6,2.8
		c-0.4,0.5-0.8,1.1-1.3,1.8c-0.5,1.5-1.8,2.6-3.9,3.3c-1.8,0.7-3.3,0.8-4.8,0.3s-2-1.5-1.4-2.9C223.7,44.2,225.5,36.3,228.6,25.5z"
		/>
	<path class="st1" d="M308.2,2.3c6-1.2,10.7-0.5,14,2.2c1.6,1.3,2.6,3.2,3.2,5.6c0.5,2.5,0.3,5.2-0.8,8.3c-0.5,1.4-1.3,2.5-2.4,3.2
		s-2.3,1.1-3.5,1.2s-2.3,0-3.2-0.4s-1.5-1-1.6-1.7l-0.6-1.3c-1-1.5-2.7-1.7-5.2-0.6c-2.1,1-4.3,2.6-6.4,5c-2.3,2.6-3.7,4.9-4.4,6.9
		c-0.7,2.3-1.1,3.7-1.1,4.5c-0.1,1.6,0.5,3,1.7,4.3c1.8,1.1,3.5,1.6,5.3,1.5s3.3-0.5,4.7-1.2c1.4-0.7,2.5-1.5,3.4-2.4
		s1.3-1.5,1.3-1.9c0.1-0.3,0.3-0.5,0.4-0.8s0.2-0.5,0.3-0.8c-0.2,0-0.1,0,0.1,0c0.3,0,0.3,0,0.2,0c-0.1,0-0.1,0.1,0.2,0.1l0.4,0.1
		c-2,1.8-4,2.2-6,1.1c-0.8-0.5-1.4-0.9-2-1.5c-0.6-0.5-1.1-0.8-1.6-0.7c-0.9-0.5-1.1-1.5-0.6-2.9c0.2-0.6,0.6-1.1,1.2-1.7
		c0.6-0.5,1.3-0.9,2.2-1.1c4.2-1.8,8-2.2,11.6-1.3c1.6,0.4,2.7,1.3,3.3,2.5c0.6,1.3,0.9,2.7,0.8,4.3c-0.1,1.6-0.4,3.2-1,4.8
		c-0.6,1.6-1.3,2.9-2,3.9s-1.7,2.1-3,3.5s-2.9,2.6-4.8,3.9c-4.7,3.1-9.8,4.5-15.2,4.4c-7.8-0.1-12.4-3.3-13.9-9.6
		c-0.5-2-0.7-4.3-0.6-6.8c0.4-7.3,2.6-14.1,6.5-20.4c1.9-3,4.4-6,7.6-8.9c2-1.8,4.3-3.2,6.8-4.1C304.7,3.4,306.3,2.8,308.2,2.3z"/>
	<path class="st1" d="M344.9,4.2L344.9,4.2v0.2c0,0,0,0,0,0.1v0.1h0.1l0.4,1c0.4,1.2-0.7,5-3.2,11.3c-2.7,6.7-4,12-3.8,15.7
		c0.5,2.7,2.7,0.5,6.7-6.5c3.2-5.4,6.2-11.4,9.2-17.9c0.4-0.9,0.8-1.8,1.2-2.7c0.4-0.9,0.9-1.7,1.6-2.4c1.4-1.5,3-1.9,5-1.2
		c0.7-0.8,1.4-1.3,2.3-1.6c0.9-0.3,1.8-0.4,2.6-0.2c0.8,0.2,1.5,0.6,2.1,1.2s0.9,1.4,0.9,2.4c0.1,0.8-0.3,2.8-1.3,6
		c-1,3.1-1.9,6-2.7,8.6c-0.8,2.6-1.7,5.4-2.6,8.5c-2.1,7.2-3.8,14-5,20.4c0,1.3-0.6,2.4-1.7,3.3s-2.3,1.5-3.7,1.7
		c-1.4,0.3-2.6,0.2-3.9-0.1c-1.5-0.4-2.2-1.5-2.3-3.1c0-0.5,0-0.9-0.1-1.4c0.1,1.4-0.9,2.6-3.1,3.6c-0.6,0.3-1.1,0.6-1.6,0.8
		c-2.9,0.9-6,0.7-9.2-0.5c-1.5-0.6-2.9-1.5-4-2.5c-1.2-1.1-2-2.3-2.5-3.8c-1.5-4.7-1.2-10.8,0.8-18.4c0.8-3.3,1.8-6.4,3.1-9.5
		c1.2-3.1,2.1-5.3,2.7-6.7c0.6-1.4,1-2.3,1.2-2.9c0.3-0.5,0.5-1,0.8-1.5c0.7-1.4,1.3-2.4,1.8-2.9l0.8-0.7c0.1-0.1,0.2-0.1,0.3-0.2
		c0.1,0,0.2-0.1,0.3-0.2c0.3-0.2,0.7-0.4,1.1-0.4l0.9-0.2h0.4c1.2-0.2,2.3,0.1,3.1,0.7c0,0,0,0.1,0.1,0.1l0.5,0.4l0.2,0.2l0.2,0.3
		v0.1c0,0,0,0,0,0.1l0.1,0.1v0.1c0,0,0.1,0,0.1,0.1v0.1l0.1,0.1v0.1V4.2L344.9,4.2c0,0,0,0.1,0.1,0.1v0.1
		C344.8,4.1,344.8,4.2,344.9,4.2z M346.6,45.9v-0.2c0,0-0.1,0.2-0.1,0.5C346.6,46.1,346.6,46,346.6,45.9L346.6,45.9z"/>
	<path class="st1" d="M376.8,53.2c-2.1,0.1-4.1-0.2-5.9-0.8c-1.8-0.6-3.2-1.4-4.3-2.5s-1.8-2.3-2.1-3.7s0-2.8,0.7-4.3
		c1.1-1.8,3.3-2.3,6.5-1.6c2.5,0.5,4.2,0.8,5.1,0.8s1.7-0.1,2.4-0.4c3-1,4.8-2.1,5.1-3.3c0.3-0.9-0.3-1.9-1.6-3.1
		c-0.5-0.5-1.2-1-1.8-1.5c-0.7-0.5-1.2-1-1.7-1.5c-2.1-1.5-3.7-3.3-4.9-5.3c-1.2-2-1.7-4.2-1.5-6.6s0.6-4.4,1.2-5.9
		c0.6-1.6,1.3-3,2.2-4.2c1.5-2.1,3.5-3.9,6-5.2c2.8-1.5,5.1-2.4,6.8-2.8c3.4-0.8,6.8-0.8,10.3-0.2c1.2,0.2,2.2,0.6,3,1.2
		s1.7,1.2,2.5,1.8c1.5,1.5,1.8,2.9,1.1,4.4c-0.3,0.7-0.8,1.2-1.4,1.6s-1.3,0.7-2,0.7c0.1,1.1-0.1,2-0.6,2.5c-1,1-2.6,1.6-5,1.9
		c-3.4-0.2-5.7-0.1-7,0.6c-1.4,0.8-1.9,2.4-1.6,4.9c0.1,0.5,0.4,1.1,1,1.7s1.3,1.2,2.1,1.9c0.8,0.7,1.7,1.4,2.6,2.3
		c0.9,0.8,1.7,1.8,2.4,2.9c2.3,3.8,2.2,8.3-0.5,13.5c-2,3.8-5.4,6.7-10.3,8.7C383.2,52.6,380.2,53.2,376.8,53.2z"/>
	<path class="st1" d="M422.8,33.4c-1.1,3.3-2.3,6.4-3.5,9.4s-2.1,5.3-2.9,6.9s-1.4,2.6-2,3.2s-1.2,1-1.8,1.2
		c-0.6,0.2-1.2,0.3-1.8,0.3c-0.6,0-1.2-0.1-1.8-0.1c-3.5-0.5-4.6-3.1-3.3-7.6c0.9-3.6,1.6-6.5,2.1-8.8s1-4.2,1.3-5.6
		c0.4-1.5,0.7-2.7,0.9-3.7c0.2-1,0.5-2,0.8-2.9c0.3-1,0.7-2,1.1-3.3c0.4-1.2,1-2.8,1.7-4.8c-1.6,0.2-3,0-4.3-0.5
		c-1.8-0.8-2.6-2.5-2.3-5.1c0.2-1.2,0.8-2.3,1.9-3.4c0.6-0.5,1.3-1.1,2.1-1.8c1.6-1.3,4.9-2.7,9.7-4.2c5-1.5,9.3-2.2,12.9-2.2
		c1-0.2,2-0.1,3,0.3s1.9,0.9,2.5,1.6s1,1.4,1,2.2c0,0.8-0.5,1.5-1.5,2.1c-0.5,0.3-0.9,0.9-1.1,1.7c-0.2,0.8-0.4,1.6-0.7,2.4
		c-0.3,0.9-0.6,1.6-1.1,2.4c-0.5,0.7-1.2,1.1-2.3,1.3c-0.5,0.3-1.3,0.5-2.3,0.6s-1.6,0.2-1.9,0.3c-0.3,0.1-0.5,0.2-0.5,0.3
		c-0.7,2.2-1.6,4.9-2.7,8.1C425,26.9,423.9,30.1,422.8,33.4z M414.3,16.8c-0.1,0-0.1,0-0.1,0C414.2,16.9,414.2,16.9,414.3,16.8
		L414.3,16.8z"/>
	<path class="st1" d="M445.1,7.9c2.6-3,5.5-4.9,8.8-5.7c2.2-0.5,4.3-0.5,6.3,0.2c1.5-1.6,3.5-2.2,6-1.8c2.3,0.4,4.2,1.7,5.8,3.8
		c0.1,0.3,0.3,0.7,0.5,1.3c0.3,0.6,0.5,1.2,0.8,1.9c1.8,4.3,2,9.9,0.5,16.8c-1.9,8.6-5.3,15.9-10.2,21.9c-1.5,1.8-3.2,3.4-5.1,4.6
		c-3,2.3-6.6,3.3-10.8,3.1c-2.6-0.1-4.8-0.8-6.5-1.9c-7-3.5-9.3-10.7-6.9-21.7C436.3,21.5,439.9,14,445.1,7.9z M445.9,41.2l-0.1,0.4
		l0.1,0.7c0.3,1.3,0.7,2.3,1.3,3c0.6,0.7,1.1,1.1,1.4,1.3c0.4-0.3,0.8-0.6,1.3-0.9c0.4-0.3,0.8-0.6,1.1-1.1c2.8-3.5,5-8.1,6.6-13.8
		c1.6-5.7,2.2-10.9,1.7-15.8c-1.6,2.1-3.3,4.5-5.1,7.2c-1.8,2.7-3.2,5-4.3,7C447.7,33.6,446.3,37.6,445.9,41.2z"/>
</g>
</svg>
